PathFileType	4	(X/Y/Z)	/Users/itak/Documents/Research/Walk-IL/dataset/trc/00561_00009.trc
DataRate	CameraRate	NumFrames	NumMarkers	Units	OrigDataRate	OrigDataStartFrame	OrigNumFrames
100.000000	100.000000	4	53	mm	100.000000	262	420
Frame#	Time	RPSI			LPSI			L3			STRN			T10			C7			CLAV			RBAK			LBAK			LSHO			LUPA			LAEL			LAOL			LWTS			LWPS			LFRA			LHPS			LHTS			RSHO			RUPA			RAEL			RAOL			RWTS			RWPS			RFRA			RIFD			RHTS			RHPS			RBHD			LFHD			RFHD			LBHD			LHIP			RHIP			RASI			LASI			LKNE			LTHI			LANK			LTIP			LTOE			LMT1			LMT5			LHEE			RKNE			RTHI			RANK			RTIP			RTOE			RMT1			RMT5			RHEE			LIFD			
		X1	Y1	Z1	X2	Y2	Z2	X3	Y3	Z3	X4	Y4	Z4	X5	Y5	Z5	X6	Y6	Z6	X7	Y7	Z7	X8	Y8	Z8	X9	Y9	Z9	X10	Y10	Z10	X11	Y11	Z11	X12	Y12	Z12	X13	Y13	Z13	X14	Y14	Z14	X15	Y15	Z15	X16	Y16	Z16	X17	Y17	Z17	X18	Y18	Z18	X19	Y19	Z19	X20	Y20	Z20	X21	Y21	Z21	X22	Y22	Z22	X23	Y23	Z23	X24	Y24	Z24	X25	Y25	Z25	X26	Y26	Z26	X27	Y27	Z27	X28	Y28	Z28	X29	Y29	Z29	X30	Y30	Z30	X31	Y31	Z31	X32	Y32	Z32	X33	Y33	Z33	X34	Y34	Z34	X35	Y35	Z35	X36	Y36	Z36	X37	Y37	Z37	X38	Y38	Z38	X39	Y39	Z39	X40	Y40	Z40	X41	Y41	Z41	X42	Y42	Z42	X43	Y43	Z43	X44	Y44	Z44	X45	Y45	Z45	X46	Y46	Z46	X47	Y47	Z47	X48	Y48	Z48	X49	Y49	Z49	X50	Y50	Z50	X51	Y51	Z51	X52	Y52	Z52	X53	Y53	Z53	

263	2.62	-33.01190185546875	950.6004028320312	98.02622222900391	3.568183660507202	968.9395751953125	-26.92017936706543	-1.864048480987549	1059.477905273438	28.62834167480469	227.4144897460938	1238.630004882812	115.4080810546875	-1.788572549819946	1183.510986328125	25.83294486999512	46.27096557617188	1454.148315429688	70.92308807373047	209.9555053710938	1349.691772460938	119.8377456665039	-50.44529342651367	1329.633666992188	115.5004959106445	41.74715042114258	1411.311279296875	-33.19746780395508	164.5190582275391	1440.138671875	-62.8408317565918	203.6143188476562	1328.71484375	-149.019775390625	282.9051513671875	1138.266967773438	-165.0982055664062	198.5863189697266	1081.202758789062	-176.4296569824219	421.58984375	1048.490234375	23.80118179321289	467.130859375	1005.233581542969	-37.17145156860352	343.4588928222656	1096.869873046875	-126.0381088256836	507.7126770019531	984.306884765625	1.094758749008179	492.2102355957031	1027.528564453125	52.58095169067383	44.82444000244141	1412.206420898438	232.7362976074219	-8.957089424133301	1357.353881835938	283.7823486328125	-104.4100189208984	1086.89208984375	317.0109558105469	-146.4891204833984	1077.040771484375	271.4198608398438	22.13023567199707	863.4707641601562	337.7061462402344	-50.39837265014648	843.99365234375	371.1036376953125	-104.5910339355469	1030.4287109375	327.1800842285156	30.8128547668457	699.707763671875	355.96923828125	40.55748748779297	779.380126953125	380.1342468261719	-33.10281372070312	775.033447265625	390.9386596679688	134.28662109375	1630.465576171875	184.9353942871094	317.7960815429688	1621.81640625	87.84235382080078	269.1426696777344	1615.35791015625	223.5289611816406	196.7603607177734	1634.631713867188	32.02946853637695	149.9483642578125	895.6195068359375	-129.6927642822266	67.88909149169922	890.2596435546875	241.1292266845703	160.0644683837891	923.630859375	202.7144775390625	220.7098083496094	916.2611083984375	-65.29704284667969	80.39847564697266	447.6403503417969	-65.9461669921875	124.6189804077148	614.7686157226562	-100.2413482666016	-277.1573791503906	109.0586318969727	-121.3796768188477	-118.9474792480469	278.5398864746094	-102.6209182739258	-114.1961517333984	34.57425308227539	-23.08589744567871	-181.3585357666016	57.35068893432617	-2.966315746307373	-176.3848114013672	45.76023483276367	-108.1329574584961	-339.8013916015625	154.4547119140625	-83.74359893798828	307.4844055175781	524.1156616210938	297.5256958007812	151.3499145507812	770.0405883789062	273.6810302734375	429.8104553222656	36.38934707641602	292.2188110351562	372.0658569335938	391.2991333007812	305.7299499511719	635.8580932617188	96.77790832519531	337.220458984375	592.8538818359375	98.72093200683594	276.6442260742188	545.3916625976562	50.30035400390625	355.0208435058594	399.4114379882812	37.62246322631836	218.9795074462891	533.9202270507812	958.96875	106.1735763549805	
264	2.63	-12.07547950744629	949.7391357421875	106.8510208129883	24.59197998046875	968.429931640625	-18.11032867431641	18.41282653808594	1058.389404296875	37.20737838745117	245.9851837158203	1239.086669921875	122.2203674316406	17.5120849609375	1181.976684570312	33.38944244384766	63.03211212158203	1453.0498046875	77.59249877929688	227.4898071289062	1349.951538085938	126.4533309936523	-32.55146408081055	1328.016845703125	122.4013824462891	58.51812362670898	1410.027954101562	-26.24159812927246	180.8433380126953	1439.73681640625	-56.45616149902344	219.3238372802734	1328.33447265625	-143.2271118164062	297.3828430175781	1137.947387695312	-159.9650421142578	213.1425018310547	1080.649047851562	-170.5522766113281	436.6690673828125	1051.327514648438	29.71536827087402	482.4679565429688	1007.665588378906	-30.8149356842041	358.1079406738281	1097.505493164062	-120.6385650634766	523.2390747070312	987.4301147460938	7.612198352813721	507.4810791015625	1031.034912109375	58.70002365112305	61.97736740112305	1411.684326171875	239.3643493652344	8.178524971008301	1356.9609375	290.4314575195312	-87.30915832519531	1086.179809570312	322.7369079589844	-128.7311248779297	1076.318115234375	276.4585571289062	38.30147933959961	862.346435546875	346.2306518554688	-35.03416061401367	843.1146240234375	378.0867309570312	-87.89083099365234	1029.754760742188	332.9737548828125	45.87526702880859	698.6062622070312	364.95263671875	55.52972412109375	778.2659912109375	389.2646484375	-18.4224796295166	774.2257080078125	398.4861450195312	149.8759002685547	1629.900268554688	191.3621368408203	333.2923278808594	1622.3154296875	94.0357666015625	284.7520141601562	1615.649780273438	229.6950836181641	212.0785522460938	1634.302734375	38.32932662963867	170.6093444824219	895.5338745117188	-121.8662490844727	89.73464202880859	889.1249389648438	249.2171783447266	181.4165649414062	923.082275390625	210.3883209228516	241.4858245849609	916.1138916015625	-57.73307037353516	102.9925384521484	446.2147216796875	-60.62948226928711	146.6869659423828	614.0931396484375	-93.81456756591797	-266.8399658203125	120.96630859375	-120.9453201293945	-101.2438278198242	284.2471923828125	-99.47694396972656	-113.3906860351562	33.71931838989258	-22.93528938293457	-177.5132598876953	60.379638671875	-2.90180230140686	-172.2407073974609	49.39912796020508	-108.0390014648438	-325.1815185546875	170.7901458740234	-82.8861083984375	328.0685424804688	521.3060913085938	302.510498046875	172.7835388183594	767.8580932617188	281.4693603515625	445.835205078125	34.94526290893555	291.4231872558594	391.92333984375	388.2042541503906	309.0593872070312	653.8212280273438	90.23466491699219	336.4679870605469	609.934814453125	93.66867828369141	276.2064819335938	562.080810546875	46.98197174072266	354.5484313964844	415.5726623535156	36.90568161010742	218.2948303222656	549.6474609375	963.377197265625	113.1272354125977	
265	2.64	8.536797523498535	948.2692260742188	115.4177551269531	45.36530303955078	967.1388549804688	-9.62030029296875	38.42035293579102	1056.807861328125	45.77967834472656	264.5391540527344	1238.898559570312	129.0056762695312	36.57194519042969	1180.014282226562	41.14442825317383	79.92671203613281	1451.465698242188	84.41250610351562	245.1539611816406	1349.58251953125	133.0314788818359	-14.64481925964355	1325.962890625	129.6068725585938	75.38858032226562	1408.205688476562	-19.11550521850586	197.2555541992188	1438.699951171875	-50.08183670043945	234.8772277832031	1327.240478515625	-137.4809875488281	311.4320678710938	1136.863403320312	-155.181396484375	227.1885833740234	1079.4365234375	-164.9176635742188	451.5239868164062	1053.073364257812	34.96183395385742	497.4076232910156	1009.012512207031	-25.22783470153809	372.3427734375	1097.249267578125	-115.7096328735352	538.376220703125	989.304443359375	13.2527904510498	522.5109252929688	1033.221557617188	64.04370880126953	79.40587615966797	1410.5732421875	246.1463012695312	25.72204399108887	1355.886108398438	297.300048828125	-69.33242034912109	1084.689331054688	328.9512329101562	-110.2700805664062	1074.744384765625	282.0889282226562	55.44983291625977	860.4752807617188	354.8694763183594	-18.53382873535156	841.4924926757812	385.4255065917969	-70.21572113037109	1028.291870117188	339.2789306640625	61.93932723999023	696.7532958984375	373.9404296875	71.64280700683594	776.425048828125	398.3853759765625	-2.535772323608398	772.6611938476562	406.3015441894531	165.7117462158203	1628.792724609375	197.7908325195312	349.0211486816406	1622.296020507812	100.1894683837891	300.6539001464844	1615.452880859375	235.8661346435547	227.6308135986328	1633.400024414062	44.61264801025391	191.3534545898438	894.718505859375	-114.0225830078125	111.1571655273438	887.6815185546875	257.2608337402344	202.3382720947266	922.224853515625	218.0614013671875	262.1159973144531	915.472412109375	-50.08266448974609	128.0417022705078	443.7096557617188	-54.6478157043457	170.2934265136719	612.5400390625	-86.81193542480469	-254.4169311523438	133.7048187255859	-120.0157318115234	-81.205810546875	289.6223449707031	-95.76304626464844	-111.7939682006836	32.64603042602539	-22.79667663574219	-172.3358917236328	63.90572357177734	-2.73638391494751	-166.9138336181641	53.91747665405273	-107.8780670166016	-308.0199279785156	187.7229309082031	-81.34608459472656	348.9345397949219	518.6388549804688	307.4186096191406	194.2116241455078	765.7933349609375	289.2962341308594	456.5251159667969	33.50722503662109	289.1089782714844	410.9664001464844	384.4595642089844	311.7794799804688	667.0747680664062	82.22992706298828	333.5603942871094	622.4432983398438	86.17378234863281	273.5062255859375	573.4666748046875	44.01836395263672	352.6217956542969	426.4970703125	35.20024108886719	216.1325225830078	565.0516357421875	966.2698974609375	119.1006698608398	
266	2.65	28.73331451416016	946.1892700195312	123.5738296508789	65.80844879150391	964.9803466796875	-1.592341184616089	58.11640167236328	1054.720581054688	54.19052505493164	283.0550537109375	1238.036865234375	135.746337890625	55.35194396972656	1177.646240234375	49.01568603515625	96.96363830566406	1449.4169921875	91.37474822998047	262.9477844238281	1348.565795898438	139.5652465820312	3.265451192855835	1323.472412109375	137.0778656005859	92.37052154541016	1405.875732421875	-11.84382724761963	213.7880401611328	1437.04833984375	-43.71400451660156	250.3289337158203	1325.45703125	-131.7528076171875	325.0950317382812	1135.044555664062	-150.7263641357422	240.7627563476562	1077.607788085938	-159.5091247558594	466.2025451660156	1053.703979492188	39.54120635986328	511.9662170410156	1009.218383789062	-20.40568542480469	386.1959228515625	1096.09375	-111.2325668334961	553.1502075195312	989.8795166015625	18.02510833740234	537.3536987304688	1034.07958984375	68.59587860107422	97.09503936767578	1408.837036132812	253.0642852783203	43.67157363891602	1354.080078125	304.375	-50.49462127685547	1082.388671875	335.6858520507812	-91.12757110595703	1072.30126953125	288.3650207519531	73.59988403320312	857.8616333007812	363.59716796875	-0.8537745475769043	839.1199951171875	393.1579895019531	-51.57925033569336	1026.018676757812	346.1250305175781	79.07762908935547	694.14892578125	382.9031677246094	88.96903991699219	773.8480834960938	407.462158203125	14.63283824920654	770.3245239257812	414.4085388183594	181.8183135986328	1627.166259765625	204.2064819335938	365.0110168457031	1621.765747070312	106.2977828979492	316.868408203125	1614.785766601562	242.0290069580078	243.4482269287109	1631.933715820312	50.87856674194336	212.1552124023438	893.0391235351562	-106.1966400146484	131.9520111083984	885.9517822265625	265.204833984375	222.6957550048828	921.0911254882812	225.7325744628906	282.5302429199219	914.2191162109375	-42.31842422485352	155.3648071289062	440.1684265136719	-48.03096008300781	195.2537536621094	610.0771484375	-79.28580474853516	-239.6143951416016	147.0562591552734	-118.4815139770508	-58.81782150268555	294.5433044433594	-91.43803405761719	-108.880744934082	31.44802856445312	-22.6920280456543	-165.3422088623047	67.97275543212891	-2.423673391342163	-159.9407348632812	59.3756217956543	-107.5773468017578	-288.2073364257812	204.8731231689453	-78.991455078125	370.0287170410156	516.1303100585938	312.1714172363281	215.5035705566406	763.8284301757812	297.0510559082031	463.0100708007812	32.42670822143555	285.9626770019531	429.4132995605469	380.3056945800781	313.9854431152344	676.5436401367188	73.68225860595703	329.1620178222656	631.318115234375	77.21186828613281	269.1333618164062	580.7128295898438	41.84002304077148	349.7437744140625	433.1942138671875	32.80783843994141	213.1801300048828	580.2108154296875	967.660888671875	124.0996627807617	
